<?xml version="1.0" encoding="UTF-8" standalone="no"?>
<!DOCTYPE svg PUBLIC "-//W3C//DTD SVG 1.1//EN" "http://www.w3.org/Graphics/SVG/1.1/DTD/svg11.dtd">
<svg width="100%" height="100%" viewBox="0 0 111 89" version="1.1" xmlns="http://www.w3.org/2000/svg" xmlns:xlink="http://www.w3.org/1999/xlink" xml:space="preserve" xmlns:serif="http://www.serif.com/" style="fill-rule:evenodd;clip-rule:evenodd;stroke-linecap:round;stroke-linejoin:round;stroke-miterlimit:1.5;">
    <g transform="matrix(1,0,0,1,-387.824,-1123.37)">
        <g>
            <g transform="matrix(1,0,0,1,0.328067,0)">
                <circle cx="431.918" cy="1167.8" r="42.86" style="fill:none;stroke:black;stroke-width:3.13px;"/>
            </g>
            <path d="M403.486,1160.06C412.017,1159.5 421.855,1160.14 425.986,1168.81C427.226,1171.41 428.745,1174.8 428.745,1177.73C428.745,1178.88 428.653,1180.03 428.653,1181.18C428.653,1181.79 428.252,1183.54 428.557,1183.01C430.849,1179.02 432.615,1174.7 435.131,1170.83C436.686,1168.43 438.523,1166.23 440.265,1163.96C443.087,1160.29 446.411,1157.24 450.11,1154.46C459.036,1147.77 469.842,1142.16 480.205,1138.15C485.402,1136.15 485.363,1136.22 490.413,1134.61C490.837,1134.48 496.884,1132.83 496.359,1132.83" style="fill:none;stroke:black;stroke-width:3.13px;"/>
        </g>
    </g>
</svg>
